<?xml version="1.0" encoding="utf-8"?>
<!-- Generator: Adobe Illustrator 25.2.3, SVG Export Plug-In . SVG Version: 6.00 Build 0)  -->
<svg version="1.1" id="Layer_4" xmlns="http://www.w3.org/2000/svg" xmlns:xlink="http://www.w3.org/1999/xlink" x="0px" y="0px"
	 viewBox="0 0 347.9 103.9" style="enable-background:new 0 0 347.9 103.9;" xml:space="preserve">
<style type="text/css">
	.st0{fill:#FFFFFF;}
	.st1{fill:url(#SVGID_1_);}
	.st2{fill:url(#SVGID_2_);}
	.st3{fill:url(#SVGID_3_);}
	.st4{clip-path:url(#SVGID_5_);fill:url(#SVGID_6_);}
</style>
<g>
	<g>
		<path class="st0" d="M183.5,22.4c-7,0-12.7,1-18,3l-0.2,0.1l-0.2-0.1c-3.4-2-7.8-3-13-3c-10.3,0-16.6,2.1-20.9,3.9
			c-3.3,1.3-4.1,2.4-4.1,5.9v43.7c0,2.8,0.8,3.6,3.6,3.6h8.3c2.8,0,3.6-0.8,3.6-3.6V38.3c0-0.6,0.3-1,0.8-1c2-0.5,3.9-0.9,6.4-0.9
			c5.5,0,8.6,3,8.6,8.4v31c0,2.8,0.8,3.6,3.6,3.6h8.3c2.8,0,3.6-0.8,3.6-3.6V44.5c0-2.4-0.2-4.6-0.6-6.5l-0.1-0.3l0.3-0.1
			c2.5-0.7,5.1-1.1,7.6-1.1c5.5,0,8.6,3,8.6,8.4v31c0,2.8,0.8,3.6,3.5,3.6h8.4c2.8,0,3.6-0.8,3.6-3.6V44.4
			C205.4,29.8,198,22.4,183.5,22.4z"/>
		<path class="st0" d="M143.4,37.7L143.4,37.7L143.4,37.7z"/>
		<path class="st0" d="M238.7,22.4c-11.1,0-19,3.8-22.8,11c-0.7,1.3-0.8,2.4-0.6,3.1c0.3,0.8,1.1,1.5,2.6,2.1l5.8,2.4
			c2.8,1.2,3.5,0.8,5.2-1.6c2-2.8,5-4.2,9.2-4.2c5.9,0,8.7,2.7,8.7,8.5v3h-0.6c-1.6-0.1-4.7-0.3-7.4-0.3c-18.3,0-24.8,4.5-24.8,17.2
			c0,10.5,4.1,17.5,24.4,17.5c9,0,16.2-1,20.3-2.9c2.9-1.2,3.8-2.1,3.8-5.9V44.8C262.4,29.7,254.7,22.4,238.7,22.4z M246.8,67.6
			c0,0.9-0.6,1-1,1.1c-0.8,0.1-3.2,0.4-8.6,0.4c-6.7,0-7.6-2.9-7.6-5.7c0-4,2.4-5.8,7.8-5.8c2.9,0,6.9,0.2,9,0.3h0.4l0.1,0.4
			L246.8,67.6L246.8,67.6z"/>
		<path class="st0" d="M299,22.4c-3.4,0-6.6,0.3-10,1.1l-0.4,0.1V3.9c0-2.8-0.8-3.6-3.6-3.6h-8.3c-2.8,0-3.6,0.8-3.6,3.6v68
			c0,3.2,0.3,4,3.8,5.7c3.6,1.6,11,3.5,20.3,3.5c16.5,0,24.9-7.8,24.9-23.2V44.4C321.9,29.8,314.2,22.4,299,22.4z M306.4,57.9
			c0,6.3-3.3,9.3-10.2,9.3c-2.9,0-5.1-0.3-7-0.9c-0.2-0.1-0.6-0.3-0.6-0.9V37.5l0.3-0.1c1.8-0.5,4.7-1.2,8.1-1.2c6,0,9.4,3,9.4,8.3
			L306.4,57.9L306.4,57.9z"/>
		<path class="st0" d="M344.3,0.2H336c-2.8,0-3.6,0.8-3.6,3.6v72c0,2.8,0.8,3.6,3.6,3.6h8.3c2.8,0,3.6-0.8,3.6-3.6v-72
			C347.9,1.1,347.1,0.2,344.3,0.2z"/>
	</g>
	<g>
		
			<linearGradient id="SVGID_1_" gradientUnits="userSpaceOnUse" x1="0" y1="54.0621" x2="91.7" y2="54.0621" gradientTransform="matrix(1 0 0 -1 0 106)">
			<stop  offset="0" style="stop-color:#EDF0F2"/>
			<stop  offset="0.42" style="stop-color:#EDF0F2"/>
			<stop  offset="0.58" style="stop-color:#FFFFFF"/>
			<stop  offset="1" style="stop-color:#FFFFFF"/>
		</linearGradient>
		<path class="st1" d="M88.8,22.4L52.9,1.7c-3.9-2.3-10.2-2.3-14.1,0L2.9,22.4c-1.6,1-2.9,2.3-2.9,4.3c0,0.8,0,50.7,0,50.7
			c0,1.5,1,3,2.9,4.1l35.7,20.6c4.3,2.5,10.2,2.3,14.5,0c1.6-0.9,35.2-20.4,35.7-20.6c2-1.1,2.9-2.6,2.9-4.1c0-1.1,0-48.9,0-50.7
			C91.7,24.1,89.8,23,88.8,22.4z"/>
		
			<linearGradient id="SVGID_2_" gradientUnits="userSpaceOnUse" x1="33.2661" y1="101.1319" x2="58.4963" y2="57.432" gradientTransform="matrix(1 0 0 -1 0 106)">
			<stop  offset="0" style="stop-color:#EDF1F5"/>
			<stop  offset="1" style="stop-color:#F8F9FA"/>
		</linearGradient>
		<path class="st2" d="M88.8,22.4L52.9,1.7c-3.9-2.3-10.2-2.3-14.1,0L2.9,22.4c-1.6,1-2.9,2.3-2.9,4.3s1.3,3.4,2.9,4.3l35.9,20.7
			c3.9,2.3,10.2,2.3,14.1,0L88.8,31c1.1-0.6,2.9-1.7,2.9-4.3S89.8,23,88.8,22.4z"/>
		<path class="st0" d="M68.8,54.8L68.8,54.8L68.8,54.8L68.8,54.8L68.8,54.8L68.8,54.8z"/>
		
			<linearGradient id="SVGID_3_" gradientUnits="userSpaceOnUse" x1="0" y1="50.969" x2="61.1437" y2="50.969" gradientTransform="matrix(1 0 0 -1 0 106)">
			<stop  offset="0" style="stop-color:#444E61"/>
			<stop  offset="0.6" style="stop-color:#444E61"/>
			<stop  offset="0.85" style="stop-color:#56637A"/>
			<stop  offset="1" style="stop-color:#56637A"/>
		</linearGradient>
		<path class="st3" d="M0,34.3c0.1,0.3,0.1,2.1,2.8,3.7l35.9,20.8c4.1,2.4,10.1,2.2,14,0.1c1.2-0.7,5.1-2.9,5.8-3.4
			c1.7-1,2.5,0.1,2.5,0.7c0,0.2,0,7,0,10.2c0,2.6-2,4-2.9,4.5c-1.8,1-3.5,2.1-5.3,3.1c-3.2,1.8-9.3,2.8-14,0.1l-36-20.8
			C2.4,53,0,51.7,0,49.2V34.3z"/>
		<polygon points="79,59.1 79,59.1 79,59.1 		"/>
		<path d="M66.2,74.1"/>
		<polygon points="79,48.9 79,48.9 79,48.9 79,48.9 79,48.9 79,48.9 		"/>
		<polygon points="73.9,72.2 73.9,72.2 73.9,72.2 73.9,72.2 73.9,72.2 73.9,72.2 		"/>
		<path d="M68.8,54.8L68.8,54.8L68.8,54.8L68.8,54.8L68.8,54.8L68.8,54.8z"/>
		<path d="M84.1,76.5"/>
		<g>
			<g>
				<defs>
					<path id="SVGID_4_" d="M71.3,78.8v5.1l0,0l5.1-2.9v-5.1L71.3,78.8L71.3,78.8z M86.6,59.7L86.6,59.7l-5.1,2.9v5.1l0,0l5.1-2.9
						V59.7z M71.3,63.5v-5.1l-5.1,2.9l0,0v5.1l0,0L71.3,63.5z M48.6,80.7c-5,0.8-8.6-0.8-10.4-1.8c-1.4-0.8-2.6-0.3-2.5,1.1
						c0.1,1.7,1.3,3.2,2.4,3.9c1.6,1,5.3,2.6,10.1,1.9c1.6-0.2,2.7-1.6,2.7-3.2C51,81.1,49.5,80.5,48.6,80.7z M61.1,79.6v-5.1l0,0
						L56,77.4v5.1l0,0L61.1,79.6z M40.8,95.4c1.6,0.5,3.3,0.8,5.1,0.8v-5.1c-1.8,0-3.5-0.3-5.1-0.8V95.4z M33.1,86.1L33.1,86.1
						L28,83.2l0,0l0,0l0,0c-1.4-0.8-2.5-0.3-2.5,1.1s1.1,3.2,2.5,4l0,0l0,0l5.1,2.9l0,0l0,0l0,0c1.4,0.8,2.5,0.3,2.5-1.1l0,0l0,0
						C35.7,88.7,34.5,86.9,33.1,86.1z M91.7,64.9v4.7c0,2.5-2.4,3.8-2.9,4.2l-4.7,2.7c-0.9,0.6-2.2,0.6-2.5-0.6
						c-0.2-1.2,0.6-3.4,2.8-4.7c1.2-0.7,4.5-2.6,4.5-2.6C91.6,66.9,91.6,65.2,91.7,64.9z M91.7,34.3V39c0,2.5-2.4,3.8-2.9,4.2
						c0,0-0.9,0.5-2.2,1.3v-5.1c1.3-0.8,2.3-1.3,2.3-1.3C91.6,36.4,91.6,34.6,91.7,34.3z M91.7,44.5v4.7c0,2.5-2.4,3.8-2.9,4.2
						L79,59.1c-0.9,0.6-2.2,0.6-2.5-0.6c-0.2-1.2,0.6-3.4,2.8-4.7c1.2-0.7,9.6-5.6,9.6-5.6C91.6,46.6,91.6,44.8,91.7,44.5z
						 M63.7,88.3c1.4-0.8,2.6-2.6,2.5-4c0-1.4-1.1-1.8-2.5-1.1l-10.9,6.3l0,0l0,0c-1.2,0.7-1.9,1.9-1.9,3.4c0,1.2,1.3,2.1,2.5,1.3
						L63.7,88.3z M66.2,74.1L66.2,74.1L66.2,74.1c0,1.4,1.1,1.9,2.5,1.1l0,0l0,0l0,0l5.1-2.9l0,0l0,0c1.4-0.8,2.5-2.6,2.5-4
						s-1.1-1.9-2.5-1.1l0,0l0,0l0,0l-5,2.8l0,0C67.4,70.9,66.2,72.7,66.2,74.1z M66.2,53.7L66.2,53.7L66.2,53.7
						c0,1.4,1.1,1.9,2.5,1.1l0,0l0,0l0,0L79,48.9l0,0l0,0c1.4-0.8,2.5-2.6,2.5-4S80.4,43,79,43.8l0,0l0,0l0,0l-10.2,5.9l0,0
						C67.4,50.5,66.2,52.3,66.2,53.7z"/>
				</defs>
				<clipPath id="SVGID_5_">
					<use xlink:href="#SVGID_4_"  style="overflow:visible;"/>
				</clipPath>
				
					<linearGradient id="SVGID_6_" gradientUnits="userSpaceOnUse" x1="0" y1="54.0621" x2="91.7" y2="54.0621" gradientTransform="matrix(1 0 0 -1 0 106)">
					<stop  offset="0.33" style="stop-color:#16C3CC"/>
					<stop  offset="0.55" style="stop-color:#736EDB"/>
					<stop  offset="0.77" style="stop-color:#E84FD9"/>
					<stop  offset="1" style="stop-color:#FFAD33"/>
				</linearGradient>
				<path class="st4" d="M88.8,22.4L52.9,1.7c-3.9-2.3-10.2-2.3-14.1,0L2.9,22.4c-1.6,1-2.9,2.3-2.9,4.3c0,0.8,0,50.7,0,50.7
					c0,1.5,1,3,2.9,4.1l35.7,20.6c4.3,2.5,10.2,2.3,14.5,0c1.6-0.9,35.2-20.4,35.7-20.6c2-1.1,2.9-2.6,2.9-4.1c0-1.1,0-48.9,0-50.7
					C91.7,24.1,89.8,23,88.8,22.4z"/>
			</g>
		</g>
	</g>
</g>
</svg>
