<svg width="118" height="118" viewBox="0 0 118 118" fill="none" xmlns="http://www.w3.org/2000/svg">
<path d="M92.99 104.36C94.65 104.54 96.3 103.98 97.55 102.88C109.79 92.11 117.52 76.34 117.52 58.76C117.52 48.69 114.99 39.22 110.52 30.94C110.44 30.8 110.37 30.66 110.29 30.52C109.97 29.93 109.63 29.35 109.28 28.77C109.13 28.52 108.98 28.27 108.83 28.02C98.49 11.21 79.93 0 58.75 0C50.31 0 42.29 1.79 35.04 5C60.48 8.06 83.08 26.28 83.08 26.28L93.93 17.46L90.13 64.57L55.13 50.7L67.42 40.11C52.73 20.69 38.3 13.46 25.99 11.98C24.37 11.79 22.75 12.29 21.5 13.33C8.37 24.11 0 40.45 0 58.76C0 67.57 1.94998 75.91 5.41998 83.41C7.38998 87.54 9.81001 91.46 12.6 95.09C23.36 108.74 40.03 117.51 58.76 117.51C67.99 117.51 76.71 115.38 84.48 111.59C57.68 108.99 33.59 89.46 33.59 89.46L22.33 98.51L26.33 50.08L62.33 64.37L49.69 75.27C65.08 95.65 80.18 103 92.99 104.36Z" fill="#00E356"/>
</svg>
