<svg xmlns="http://www.w3.org/2000/svg" width="300" height="300" fill="none" viewBox="0 0 300 300"><g fill="#17a977" clip-path="url(#a)"><path d="M300 238.477C300 272.455 272.455 300 238.477 300H61.523C27.545 300 0 272.455 0 238.477v-78.251l79.86 3.632c28.226 1.283 49.595 25.863 46.811 53.844l-8.134 81.747 32.96-78.548c14.254-33.966 45.242-58.104 81.799-63.716L300 146.946zM238.477 0C272.455 0 300 27.545 300 61.523v71.127l-63.23-5.193c-25.569-2.1-45.246-23.364-45.246-48.894V.549l-28.042 72.083c-11.304 29.056-38.004 49.369-69.146 52.603L0 135.031V61.523C0 27.545 27.545 0 61.523 0z"/></g><defs><clipPath id="a"><path fill="#fff" d="M0 0h300v300H0z"/></clipPath></defs></svg>